<svg width="232" height="53" viewBox="0 0 232 53" fill="none" xmlns="http://www.w3.org/2000/svg">
<g clip-path="url(#clip0_38_17527)">
<path d="M23.967 21.0816H12.1085L11.129 24.2318H23.0917L23.967 21.0816Z" fill="white"/>
<path d="M22.8415 25.1349H10.8581L9.87854 28.2641H21.9871L22.8415 25.1349Z" fill="white"/>
<path d="M25.0923 17.0493H13.3589L12.4003 20.1995H24.217L25.0923 17.0493Z" fill="white"/>
<path d="M13.7549 49.3497H0.979518L0 52.5H12.8796L13.7549 49.3497Z" fill="white"/>
<path d="M26.1969 13.017H14.6094L13.6508 16.1462H25.3425L26.1969 13.017Z" fill="white"/>
<path d="M16.6518 45.3174H4.0014L3.04272 48.4677H15.7765L16.6518 45.3174Z" fill="white"/>
<path d="M64.7732 0.5L61.1261 4.04927H68.4204L64.7732 0.5Z" fill="white"/>
<path d="M44.766 33.1995H8.35708L7.37756 36.3498H45.808L44.766 33.1995Z" fill="white"/>
<path d="M43.4322 29.1672H31.3862L31.8656 30.7634L20.945 32.0235L21.7369 29.1672H9.60757L8.62805 32.3175H44.4743L43.4322 29.1672Z" fill="white"/>
<path d="M39.4308 17.0493H27.8016L28.7395 20.1996H40.4729L39.4308 17.0493Z" fill="white"/>
<path d="M48.184 45.3175H35.5544L36.4714 48.4677H49.2052L48.184 45.3175Z" fill="white"/>
<path d="M40.7646 21.0816H29.0104L29.9274 24.2318H41.8066L40.7646 21.0816Z" fill="white"/>
<path d="M37.3676 8.98468H16.4643L15.4847 12.1139H38.3888L37.3676 8.98468Z" fill="white"/>
<path d="M34.9708 49.3498L35.8878 52.5H48.7674L47.7254 49.3498H34.9708Z" fill="white"/>
<path d="M38.222 2.95721H21.195L20.8616 4.0493H38.5971L38.222 2.95721Z" fill="white"/>
<path d="M37.305 4.9314H19.0067L18.0272 8.08164H38.347L37.305 4.9314Z" fill="white"/>
<path d="M38.0969 13.017H26.6136L27.5515 16.1462H39.139L38.0969 13.017Z" fill="white"/>
<path d="M42.0984 25.1349H30.1982L31.1152 28.2641H43.1404L42.0984 25.1349Z" fill="white"/>
<path d="M17.7355 43.5743L35.0751 41.6632L35.8878 44.4144H48.4757L47.4337 41.2852H5.85623L4.87671 44.4144H17.5062L17.7355 43.5743Z" fill="white"/>
<path d="M46.0999 37.2529H7.10672L6.1272 40.3821H47.1419L46.0999 37.2529Z" fill="white"/>
<path d="M64.7524 51.1769V49.3498H52.1646V52.5H58.4168L64.7524 51.1769Z" fill="white"/>
<path d="M67.1283 17.0703H54.5404V20.1996H67.1283V17.0703Z" fill="white"/>
<path d="M69.2124 8.98468H53.6443L56.8746 12.1139H65.9821L69.2124 8.98468Z" fill="white"/>
<path d="M67.2741 4.9314H58.1459L54.9155 8.08164H70.5045L67.2741 4.9314Z" fill="white"/>
<path d="M67.1283 29.1672H54.5404V32.3175H67.1283V29.1672Z" fill="white"/>
<path d="M61.2303 16.1462L64.4606 13.017H57.208L60.4383 16.1462H61.2303Z" fill="white"/>
<path d="M67.1283 21.0816H54.5404V24.2318H67.1283V21.0816Z" fill="white"/>
<path d="M67.1283 25.1349H54.5404V28.2851H67.1283V25.1349Z" fill="white"/>
<path d="M67.1283 37.2529H54.5404V40.4031H67.1283V37.2529Z" fill="white"/>
<path d="M66.5446 45.3175H53.9568V48.4677H66.5446V45.3175Z" fill="white"/>
<path d="M67.1283 33.1995H54.5404V36.3498H67.1283V33.1995Z" fill="white"/>
<path d="M67.1283 41.2852H54.5404V44.4354H67.1283V41.2852Z" fill="white"/>
<path d="M128.275 44.0574H79.9663V46.8086H128.275V44.0574Z" fill="white"/>
<path d="M124.774 26.395C124.774 26.395 124.774 26.374 124.774 26.353H84.5513C84.5513 26.353 84.5513 26.374 84.5513 26.395C84.9889 27.3821 85.5516 28.2852 86.1977 29.1042H123.086C123.732 28.2852 124.295 27.3821 124.732 26.395H124.774Z" fill="white"/>
<path d="M80.4873 41.3692V43.2803H128.796V40.5291H94.9925L80.4873 41.3692Z" fill="white"/>
<path d="M121.481 30.8474C121.836 30.5323 122.148 30.2173 122.461 29.8813H86.8646C87.1772 30.2173 87.4899 30.5323 87.8441 30.8474C88.6153 31.5194 89.4697 32.1285 90.3867 32.6325H118.918C119.856 32.1075 120.71 31.5194 121.481 30.8474Z" fill="white"/>
<path d="M96.2847 24.4208C95.6178 24.0008 95.0759 23.4758 94.7008 22.8247H83.5718C83.7177 23.7908 83.9261 24.7149 84.2595 25.5759H99.7234C99.3483 25.5339 98.994 25.4709 98.6605 25.3869C97.7852 25.1769 96.9933 24.8619 96.3264 24.4418L96.2847 24.4208Z" fill="white"/>
<path d="M94.7007 18.2674C95.0758 17.6163 95.6177 17.0913 96.2846 16.6713C96.9515 16.2512 97.7226 15.9362 98.5979 15.7262H84.1553C83.8635 16.5873 83.6551 17.5113 83.53 18.4774H94.5965C94.5965 18.4774 94.659 18.3304 94.7007 18.2674Z" fill="white"/>
<path d="M124.628 14.3821C124.253 13.605 123.794 12.87 123.294 12.1979H86.0309C85.5307 12.87 85.0722 13.605 84.6971 14.3821C84.6137 14.5711 84.5304 14.7601 84.447 14.9491H124.878C124.795 14.7601 124.711 14.5711 124.628 14.3821Z" fill="white"/>
<path d="M114.645 22.8037C114.27 23.4548 113.728 23.9798 113.061 24.3998C112.395 24.8199 111.603 25.1349 110.727 25.3449C110.394 25.4289 110.019 25.4919 109.664 25.5339H125.128C125.441 24.6729 125.67 23.7488 125.816 22.7827H114.687L114.645 22.8037Z" fill="white"/>
<path d="M94.138 20.5566C94.138 20.0945 94.2005 19.6745 94.3047 19.2755H83.4675C83.4466 19.6955 83.4258 20.1155 83.4258 20.5566C83.4258 21.0606 83.4466 21.5436 83.4883 22.0267H94.3672C94.2213 21.5856 94.138 21.0816 94.138 20.5566Z" fill="white"/>
<path d="M116.5 33.7666C116.771 33.6616 117.042 33.5566 117.313 33.4305H92.054C92.3249 33.5356 92.575 33.6616 92.8459 33.7666C94.7633 34.4596 96.8473 34.8797 99.1398 35.0267V36.1818H110.185V35.0267C112.478 34.8797 114.583 34.4596 116.521 33.7666H116.5Z" fill="white"/>
<path d="M99.119 39.731H128.796V38.4919L110.165 39.647V36.9798H99.119V39.731Z" fill="white"/>
<path d="M126.712 47.6066H78.4032V50.2528H126.712V47.6066Z" fill="white"/>
<path d="M86.4269 11.3998H122.419C121.919 10.8328 121.377 10.3077 120.773 9.82471C120.231 9.38368 119.647 9.00565 119.043 8.64862H89.8031C89.1987 9.00565 88.6152 9.38368 88.0733 9.82471C87.4689 10.3077 86.9271 10.8328 86.4269 11.3998Z" fill="white"/>
<path d="M125.941 20.5566C125.941 20.1155 125.941 19.6955 125.899 19.2755H115.062C115.166 19.6745 115.229 20.0945 115.229 20.5566C115.229 21.1026 115.146 21.5856 115 22.0267H125.879C125.92 21.5436 125.941 21.0606 125.941 20.5566Z" fill="white"/>
<path d="M114.645 18.2674C114.645 18.2674 114.708 18.4144 114.75 18.4774H125.816C125.691 17.5113 125.483 16.5873 125.191 15.7262H110.748C111.623 15.9362 112.395 16.2512 113.062 16.6713C113.728 17.0913 114.27 17.6163 114.645 18.2674Z" fill="white"/>
<path d="M115.562 6.98951C113.437 6.33846 111.144 6.02344 108.685 6.02344H100.724C98.2645 6.02344 95.972 6.33846 93.8462 6.98951C93.0543 7.24153 92.304 7.53555 91.5746 7.87158H117.813C117.105 7.53555 116.354 7.24153 115.542 6.98951H115.562Z" fill="white"/>
<path d="M147.97 26.353H137.82V29.1042H147.97V26.353Z" fill="white"/>
<path d="M161.245 26.353H151.096V29.1042H161.245V26.353Z" fill="white"/>
<path d="M147.97 22.8037H137.82V25.5549H147.97V22.8037Z" fill="white"/>
<path d="M134.382 17.2383H137.82V18.4774H147.97V17.2383H151.096V18.4774H161.245V17.2383H165.205V15.7262H134.382V17.2383Z" fill="white"/>
<path d="M133.089 46.8086H166.226L167.393 46.6826V46.8086H178.126V44.0574H133.089V46.8086Z" fill="white"/>
<path d="M165.164 8.64862H134.34V11.3998H165.164V8.64862Z" fill="white"/>
<path d="M131.526 50.3578H134.965L158.057 47.6066H131.526V50.3578Z" fill="white"/>
<path d="M165.164 12.1979H134.34V14.9491H165.164V12.1979Z" fill="white"/>
<path d="M161.245 19.2755H151.096V22.0267H161.245V19.2755Z" fill="white"/>
<path d="M147.97 29.9023H137.82V32.6535H147.97V29.9023Z" fill="white"/>
<path d="M161.245 29.9023H151.096V32.6535H161.245V29.9023Z" fill="white"/>
<path d="M161.245 22.8037H151.096V25.5549H161.245V22.8037Z" fill="white"/>
<path d="M147.97 33.4305H137.82V36.1818H147.97V33.4305Z" fill="white"/>
<path d="M178.648 26.353H167.915V29.1042H178.648V26.353Z" fill="white"/>
<path d="M178.647 40.5291H133.61V43.2803H178.647V40.5291Z" fill="white"/>
<path d="M178.648 19.2755H167.915V22.0267H178.648V19.2755Z" fill="white"/>
<path d="M178.585 12.1979H167.852V14.9491H178.585V12.1979Z" fill="white"/>
<path d="M178.648 15.7262H167.915V18.4774H178.648V15.7262Z" fill="white"/>
<path d="M161.245 33.4305H151.096V36.1818H161.245V33.4305Z" fill="white"/>
<path d="M178.648 29.9023H167.915V32.6535H178.648V29.9023Z" fill="white"/>
<path d="M147.97 19.2755H137.82V22.0267H147.97V19.2755Z" fill="white"/>
<path d="M178.648 33.4305H167.915V36.1818H178.648V33.4305Z" fill="white"/>
<path d="M178.648 22.8037H167.915V25.5549H178.648V22.8037Z" fill="white"/>
<path d="M161.245 37.3788V36.9798H151.096V38.5339L147.97 38.8489V36.9798H137.82V39.731H178.647V36.9798H164.726L161.245 37.3788Z" fill="white"/>
<path d="M165.83 52.5L172.75 51.1349H165.83V52.5Z" fill="white"/>
<path d="M165.164 6.6535H134.34V7.8716H165.164V6.6535Z" fill="white"/>
<path d="M178.585 6.6535H167.852V7.8716H178.585V6.6535Z" fill="white"/>
<path d="M176.563 47.6066H165.83V50.3578H176.563V47.6066Z" fill="white"/>
<path d="M178.585 8.64862H167.852V11.3998H178.585V8.64862Z" fill="white"/>
<path d="M186.192 32.6535H196.55L201.343 29.9023H184.233L186.192 32.6535Z" fill="white"/>
<path d="M183.691 41.3692V43.2803H232V40.5291H198.03L183.691 41.3692Z" fill="white"/>
<path d="M231.479 44.0574H183.17V46.8086H231.479V44.0574Z" fill="white"/>
<path d="M229.916 47.6066H181.607V50.2528H229.916V47.6066Z" fill="white"/>
<path d="M213.264 6.38049H202.323V7.85061H213.264V6.38049Z" fill="white"/>
<path d="M220.371 32.6535H228.603L230.437 29.9023H215.057L220.371 32.6535Z" fill="white"/>
<path d="M202.719 29.1042L207.512 26.353H188.297L183.899 29.1042H202.719Z" fill="white"/>
<path d="M195.237 22.0267H222.08L217.245 19.2755H199.634L195.237 22.0267Z" fill="white"/>
<path d="M232 38.4919L211.201 39.731H232V38.4919Z" fill="white"/>
<path d="M189.568 25.5759H228.311L223.476 22.8037H193.966L189.568 25.5759Z" fill="white"/>
<path d="M213.264 12.1979H202.323V14.9491H213.264V12.1979Z" fill="white"/>
<path d="M202.385 17.5533L200.885 18.4774H215.869L213.306 17.0283V15.7262H202.385V17.5533Z" fill="white"/>
<path d="M226.477 35.8247L228.061 33.4305H221.892L226.477 35.8247Z" fill="white"/>
<path d="M188.735 36.1818H190.381L195.174 33.4305H186.755L188.735 36.1818Z" fill="white"/>
<path d="M213.264 8.64862H202.323V11.3998H213.264V8.64862Z" fill="white"/>
<path d="M213.535 29.1042H230.958L231.938 27.6341L229.708 26.353H208.221L213.535 29.1042Z" fill="white"/>
</g>
<defs>
<clipPath id="clip0_38_17527">
<rect width="232" height="52" fill="white" transform="translate(0 0.5)"/>
</clipPath>
</defs>
</svg>
